<svg xmlns="http://www.w3.org/2000/svg" viewBox="0 0 512 512">
  <defs>
    <linearGradient id="bg" x1="0" y1="0" x2="1" y2="1">
      <stop offset="0" stop-color="#f8f5e8"/>
      <stop offset="1" stop-color="#e7ead7"/>
    </linearGradient>
    <filter id="s" x="-20%" y="-20%" width="140%" height="140%">
      <feDropShadow dx="0" dy="8" stdDeviation="10" flood-color="#000" flood-opacity="0.18"/>
    </filter>
  </defs>
  <rect x="16" y="16" width="480" height="480" rx="96" fill="url(#bg)" filter="url(#s)"/>
  <path d="M56 414 C130 376 170 408 238 374 C304 342 360 382 456 334 L456 496 L56 496 Z" fill="#618447" opacity="0.55"/>
  <path d="M74 456 C146 410 210 452 270 410 C334 366 390 424 468 386 L468 496 L74 496 Z" fill="#315f2d" opacity="0.85"/>
  <circle cx="258" cy="245" r="190" fill="none" stroke="#315f2d" stroke-width="10" opacity="0.88"/>
  <path d="M171 142 C206 107 274 98 326 128 C377 157 387 207 360 244 C334 280 290 280 260 312 C232 342 181 320 163 282 C145 244 136 177 171 142 Z" fill="#0f421d"/>
  <path d="M174 152 C151 176 156 209 139 224 C120 242 112 263 125 286 C137 309 166 311 179 334 C192 356 217 350 235 330" fill="none" stroke="#0f421d" stroke-width="24" stroke-linecap="round"/>
  <path d="M106 372 C122 296 126 246 116 174" fill="none" stroke="#1f5724" stroke-width="8" stroke-linecap="round"/>
  <path d="M116 250 C90 238 73 220 60 198 M117 270 C88 279 66 302 52 329 M118 220 C143 205 159 185 169 159" fill="none" stroke="#1f5724" stroke-width="6" stroke-linecap="round"/>
  <circle cx="58" cy="198" r="10" fill="#1f5724"/><circle cx="75" cy="216" r="8" fill="#1f5724"/><circle cx="90" cy="237" r="8" fill="#1f5724"/>
  <circle cx="53" cy="329" r="9" fill="#1f5724"/><circle cx="69" cy="306" r="8" fill="#1f5724"/><circle cx="91" cy="280" r="8" fill="#1f5724"/>
  <rect x="342" y="174" width="76" height="58" rx="8" fill="#5b862f"/>
  <rect x="295" y="302" width="70" height="54" rx="8" fill="#5b862f"/>
  <rect x="401" y="302" width="70" height="54" rx="8" fill="#5b862f"/>
  <path d="M380 232 V268 H330 V302 M380 268 H436 V302" fill="none" stroke="#5b862f" stroke-width="16" stroke-linecap="round" stroke-linejoin="round"/>
</svg>