<svg xmlns="http://www.w3.org/2000/svg" viewBox="0 0 558 120" width="558" height="120"><rect x="8" y="8" width="104" height="104" rx="52" fill="#8a6d3d"/><circle cx="60" cy="60" r="44" fill="none" stroke="#6b5330" stroke-width="3"/><g transform="translate(8,8) scale(0.203)"><rect x="140" y="164" width="232" height="200" rx="14" fill="none" stroke="#eef3ec" stroke-width="16"/><path d="M140 202 L140 178 A14 14 0 0 1 154 164 L358 164 A14 14 0 0 1 372 178 L372 202 Z" fill="#eef3ec"/><rect x="156" y="222" width="34" height="40" rx="6" fill="#eef3ec"/><rect x="156" y="276" width="34" height="54" rx="6" fill="#eef3ec"/><rect x="196" y="240" width="34" height="60" rx="6" fill="#eef3ec"/><rect x="236" y="222" width="34" height="44" rx="6" fill="#faf3e6"/><rect x="236" y="300" width="34" height="40" rx="6" fill="#eef3ec"/><rect x="276" y="250" width="34" height="70" rx="6" fill="#eef3ec"/><rect x="316" y="232" width="34" height="50" rx="6" fill="#eef3ec"/><rect x="316" y="300" width="34" height="44" rx="6" fill="#eef3ec"/></g><text x="140" y="60" font-family="Atkinson Hyperlegible" font-weight="700" font-size="46" fill="#141d17" dominant-baseline="middle">Création de cours</text></svg>