<svg xmlns="http://www.w3.org/2000/svg" viewBox="0 0 512 512" width="512" height="512"><rect x="140" y="164" width="232" height="200" rx="14" fill="none" stroke="#eef3ec" stroke-width="16"/><path d="M140 202 L140 178 A14 14 0 0 1 154 164 L358 164 A14 14 0 0 1 372 178 L372 202 Z" fill="#eef3ec"/><rect x="156" y="222" width="34" height="40" rx="6" fill="#eef3ec"/><rect x="156" y="276" width="34" height="54" rx="6" fill="#eef3ec"/><rect x="196" y="240" width="34" height="60" rx="6" fill="#eef3ec"/><rect x="236" y="222" width="34" height="44" rx="6" fill="#faf3e6"/><rect x="236" y="300" width="34" height="40" rx="6" fill="#eef3ec"/><rect x="276" y="250" width="34" height="70" rx="6" fill="#eef3ec"/><rect x="316" y="232" width="34" height="50" rx="6" fill="#eef3ec"/><rect x="316" y="300" width="34" height="44" rx="6" fill="#eef3ec"/></svg>